<?xml version="1.0" standalone="no"?>
<!DOCTYPE svg PUBLIC "-//W3C//DTD SVG 20010904//EN"
 "http://www.w3.org/TR/2001/REC-SVG-20010904/DTD/svg10.dtd">
<svg version="1.0" xmlns="http://www.w3.org/2000/svg"
 width="260.000000pt" height="260.000000pt" viewBox="0 0 260.000000 260.000000"
 preserveAspectRatio="xMidYMid meet">
<metadata>
Created by potrace 1.11, written by Peter Selinger 2001-2013
</metadata>
<g transform="translate(0.000000,260.000000) scale(0.100000,-0.100000)"
fill="#000000" stroke="none">
<path d="M0 1300 l0 -1300 1300 0 1300 0 0 1300 0 1300 -1300 0 -1300 0 0
-1300z m725 98 c86 -260 159 -480 161 -487 3 -8 78 203 168 470 l164 484 106
3 106 3 0 -576 0 -575 -75 0 -75 0 -2 475 -3 474 -160 -472 -161 -472 -70 -3
-71 -3 -161 478 -161 478 0 -477 -1 -478 -75 0 -75 0 0 575 0 575 114 0 115 0
156 -472z m1075 277 l0 -194 55 38 c67 47 136 65 221 58 129 -10 220 -81 243
-188 7 -29 11 -177 11 -359 l0 -310 -69 0 -70 0 -3 313 c-3 274 -5 316 -20
344 -56 101 -211 110 -303 18 -60 -60 -65 -90 -65 -404 l0 -271 -75 0 -75 0 0
575 0 575 75 0 75 0 0 -195z"/>
</g>
</svg>
